<svg width="35" height="35" viewBox="0 0 35 35" fill="none" xmlns="http://www.w3.org/2000/svg">
<path d="M17.5 19C20.5376 19 23 16.5376 23 13.5C23 10.4624 20.5376 8 17.5 8C14.4624 8 12 10.4624 12 13.5C12 16.5376 14.4624 19 17.5 19Z" fill="#252525"/>
<path d="M30.5363 13.0786C30.7183 12.8393 30.8511 12.5655 30.9269 12.2733C31.0026 11.9811 31.0197 11.6764 30.9772 11.3774C30.9347 11.0784 30.8335 10.791 30.6794 10.5323C30.5254 10.2737 30.3217 10.049 30.0805 9.87157L29.1365 9.17712C28.8253 8.94831 28.5777 8.64172 28.418 8.28719C28.2582 7.93266 28.1917 7.54225 28.2249 7.15394L28.3247 5.97558C28.352 5.67364 28.319 5.36923 28.2277 5.08049C28.1364 4.79176 27.9887 4.52461 27.7934 4.29498C27.5981 4.06535 27.3592 3.87795 27.0909 3.74393C26.8226 3.60992 26.5304 3.53205 26.2318 3.51496L25.0666 3.44934C24.6829 3.42718 24.3113 3.30476 23.9881 3.09396C23.6648 2.88317 23.4008 2.59117 23.2218 2.24637L22.6824 1.19923C22.5425 0.932177 22.3512 0.696315 22.1197 0.505638C21.8882 0.31496 21.6213 0.17335 21.3348 0.0892054C21.0483 0.005061 20.748 -0.0199038 20.4518 0.0157916C20.1556 0.0514869 19.8695 0.147116 19.6105 0.297006L18.5964 0.879353C18.2616 1.07153 17.8834 1.17253 17.4987 1.17253C17.1139 1.17253 16.7357 1.07153 16.4009 0.879353L15.3868 0.297006C15.1272 0.147966 14.8408 0.0532986 14.5444 0.0186197C14.248 -0.0160593 13.9478 0.00995681 13.6616 0.0951245C13.3753 0.180292 13.1088 0.322876 12.878 0.514418C12.6471 0.705959 12.4565 0.942556 12.3176 1.21017L11.7782 2.2573C11.5992 2.60211 11.3352 2.8941 11.0119 3.1049C10.6887 3.31569 10.3171 3.43812 9.93336 3.46027L8.76822 3.52589C8.46959 3.54298 8.17742 3.62086 7.90912 3.75487C7.64082 3.88888 7.40189 4.07629 7.20657 4.30592C7.01126 4.53555 6.86356 4.80269 6.77228 5.09143C6.681 5.38017 6.64802 5.68458 6.67529 5.98651L6.77508 7.16488C6.80828 7.55319 6.74177 7.9436 6.58202 8.29813C6.42228 8.65266 6.17473 8.95924 5.86347 9.18806L4.91949 9.8825C4.67826 10.0599 4.47459 10.2846 4.32056 10.5433C4.16653 10.8019 4.06527 11.0893 4.02277 11.3883C3.98027 11.6874 3.99739 11.992 4.07313 12.2842C4.14886 12.5764 4.28167 12.8503 4.46369 13.0895L5.17571 14.0246C5.41074 14.3329 5.56306 14.6976 5.61788 15.0833C5.67271 15.4689 5.62816 15.8624 5.48857 16.2254L5.06513 17.3191C4.95689 17.6005 4.90545 17.9011 4.91385 18.2031C4.92226 18.505 4.99034 18.8022 5.11407 19.077C5.2378 19.3518 5.41466 19.5987 5.63418 19.803C5.8537 20.0073 6.11143 20.1648 6.39209 20.2663L7.4898 20.6628C7.85223 20.7934 8.17511 21.0169 8.42703 21.3116C8.67895 21.6062 8.85131 21.962 8.92735 22.3442L9.13772 23.3831L6.33546 32.6159L10.7802 31.2052L13.5474 35L16.0746 26.6257C16.4529 26.9439 16.9243 27.1264 17.4156 27.1447C17.9068 27.163 18.3903 27.0161 18.7906 26.7268L21.4499 35L24.2171 31.2052L28.6618 32.6159L25.7922 23.6921C25.811 23.6292 25.8272 23.569 25.8407 23.5034L26.07 22.3442C26.146 21.962 26.3184 21.6062 26.5703 21.3116C26.8222 21.0169 27.1451 20.7934 27.5075 20.6628L28.6052 20.2663C28.8859 20.1648 29.1436 20.0073 29.3631 19.803C29.5826 19.5987 29.7595 19.3518 29.8832 19.077C30.007 18.8022 30.075 18.505 30.0835 18.2031C30.0919 17.9011 30.0404 17.6005 29.9322 17.3191L29.5087 16.2254C29.3691 15.8624 29.3246 15.4689 29.3794 15.0833C29.4342 14.6976 29.5866 14.3329 29.8216 14.0246L30.5363 13.0786ZM9.7985 13.5762C9.7985 12.0324 10.2501 10.5232 11.0962 9.23959C11.9423 7.95596 13.1449 6.95549 14.5519 6.3647C15.9589 5.7739 17.5072 5.61933 19.0009 5.92051C20.4946 6.22169 21.8666 6.96511 22.9435 8.05675C24.0204 9.14839 24.7537 10.5392 25.0508 12.0534C25.348 13.5675 25.1955 15.137 24.6127 16.5633C24.0299 17.9896 23.0429 19.2086 21.7766 20.0663C20.5103 20.924 19.0216 21.3818 17.4987 21.3818C15.4571 21.3796 13.4998 20.5566 12.0562 19.0932C10.6126 17.6298 9.80064 15.6457 9.7985 13.5762Z" fill="#252525"/>
</svg>
