<svg width="37" height="36" viewBox="0 0 37 36" fill="none" xmlns="http://www.w3.org/2000/svg">
<path d="M36.1663 26.3393C35.2935 24.9369 33.6062 24.0425 30.2447 22.2607C29.4952 21.8634 28.6456 21.4129 27.7068 20.9048C27.5624 20.8266 27.3846 20.8466 27.2612 20.9555L21.4986 26.0236L15.7186 20.9556C15.595 20.8471 15.4177 20.8272 15.2734 20.9052C14.2841 21.4406 13.3967 21.9097 12.6136 22.3237C9.30523 24.0723 7.64456 24.9502 6.78533 26.3386C6.71678 26.4494 6.65427 26.5631 6.59648 26.6794C3.1566 25.4805 0.787239 22.1746 0.787239 18.5003C0.787239 13.7257 4.66824 9.84119 9.43863 9.84119C11.1498 9.84119 12.7974 10.3395 14.2142 11.281C15.1563 14.8274 17.666 18.8963 21.6353 18.8963C26.7853 18.8963 29.4793 12.0482 29.4793 8.37718C29.4793 4.30936 25.9605 1 21.6353 1C17.3106 1 13.7923 4.30936 13.7923 8.37718C13.7923 8.92836 13.8535 9.55145 13.9741 10.2119C12.5896 9.44988 11.0395 9.04945 9.43863 9.04945C4.23409 9.04945 0 13.2891 0 18.5004C0 20.5806 0.662067 22.5537 1.91471 24.2068C3.03025 25.679 4.57776 26.805 6.30858 27.4163C5.93281 28.6785 5.95104 30.3539 5.9812 33.0561C5.9896 33.8092 5.99909 34.663 6.00094 35.6049C6.00136 35.8232 6.17744 36 6.3946 36H36.5737C36.7909 36 36.967 35.8232 36.9674 35.6049C36.9691 34.6852 36.9781 33.8483 36.9862 33.1102C37.0246 29.5411 37.0439 27.7495 36.1663 26.3393ZM7.11027 27.497C7.1101 27.4975 7.11002 27.4979 7.10985 27.4983C7.11002 27.4978 7.1101 27.4974 7.11027 27.497ZM7.03525 27.7447C7.03004 27.7636 7.025 27.7827 7.02004 27.8019C7.02508 27.7828 7.03004 27.7636 7.03525 27.7447ZM7.00081 27.8786C6.9961 27.898 6.99131 27.9172 6.98678 27.9368C6.99131 27.9172 6.9961 27.8979 7.00081 27.8786ZM7.26216 27.2101C7.26333 27.1925 7.26249 27.1753 7.2614 27.158C7.26266 27.1753 7.26308 27.1926 7.26216 27.2101ZM7.25779 27.1239C7.28501 27.0646 7.31382 27.0068 7.3439 26.9499C7.3139 27.0068 7.28501 27.0645 7.25779 27.1239ZM7.26014 27.2286C7.25779 27.251 7.25409 27.2735 7.24754 27.2959C7.24141 27.317 7.23359 27.337 7.22443 27.3562C7.23359 27.3369 7.24141 27.317 7.24754 27.2959C7.25409 27.2735 7.25762 27.251 7.26014 27.2286ZM7.19957 27.3989C7.1973 27.4023 7.19562 27.4062 7.19327 27.4096C7.19562 27.4061 7.19739 27.4023 7.19957 27.3989ZM6.82078 29.0582C6.81876 29.0819 6.81691 29.106 6.81498 29.1301C6.81683 29.1061 6.81868 29.0819 6.82078 29.0582ZM6.807 29.2339C6.80524 29.2587 6.80347 29.2838 6.80179 29.3089C6.80356 29.2838 6.80524 29.2587 6.807 29.2339ZM6.7949 29.419C6.79347 29.443 6.79196 29.4668 6.79062 29.4911C6.79205 29.4669 6.79347 29.443 6.7949 29.419ZM6.77382 29.8645C6.77298 29.8892 6.77214 29.9145 6.7713 29.9393C6.77214 29.9145 6.77289 29.8892 6.77382 29.8645ZM6.75475 31.5249C6.75483 31.5483 6.75483 31.5715 6.755 31.5952C6.75491 31.5715 6.75483 31.5483 6.75475 31.5249ZM6.7587 32.1116C6.75895 32.1408 6.7592 32.1702 6.75953 32.1996C6.75928 32.1703 6.75895 32.1407 6.7587 32.1116ZM6.76138 32.3869C6.76172 32.4201 6.76205 32.4532 6.76239 32.4867C6.76197 32.4533 6.76164 32.42 6.76138 32.3869ZM6.76441 32.6802C6.76466 32.7104 6.76508 32.7404 6.76533 32.7709C6.76508 32.7405 6.76474 32.7104 6.76441 32.6802Z" fill="#252525"/>
<path d="M7.28945 19.65C7.07944 19.3977 6.93529 19.0988 6.85969 18.7505L5 18.9515C5.14414 19.8021 5.4709 20.4625 5.98625 20.9288C6.50098 21.3953 7.13361 21.7061 7.95359 21.7981L7.96073 23L9.00054 22.9797L9.00384 21.749C9.93868 21.6148 10.6895 21.2814 11.2139 20.7416C11.739 20.2012 12 19.5384 12 18.7505C12 18.0453 11.7925 17.4673 11.375 17.0165C10.9603 16.5678 10.1768 16.1998 9.0274 15.9183V13.367C9.49116 13.55 9.77883 13.8985 9.89102 14.4115L11.7071 14.1973C11.5825 13.5435 11.2947 13.021 10.8453 12.6302C10.3939 12.2401 9.76241 12.0176 9.00116 11.9347L9.00054 11H7.95368L7.96144 11.9227C7.14611 11.9967 6.52044 12.2734 6.02999 12.7598C5.53954 13.2441 5.29284 13.8447 5.29284 14.5588C5.29284 15.2644 5.51008 15.8621 5.94457 16.3578C6.37638 16.8511 7.05748 17.2192 7.98759 17.4626V20.197C7.73117 20.0832 7.49955 19.9025 7.28945 19.65ZM9.02731 17.7442C9.45912 17.8582 9.76892 18.0186 9.9568 18.2303C10.1473 18.4403 10.2425 18.6927 10.2425 18.9825C10.2425 19.3106 10.1303 19.5946 9.90334 19.8356C9.67886 20.0766 9.38602 20.2329 9.02731 20.3038V17.7442ZM7.30186 15.1261C7.15253 14.9275 7.07944 14.7127 7.07944 14.483C7.07944 14.2306 7.15967 14.001 7.32337 13.791C7.48706 13.581 7.70689 13.432 7.98741 13.3402V15.6039C7.6802 15.4828 7.45064 15.3224 7.30186 15.1261Z" fill="#252525"/>
</svg>
