<svg width="35" height="36" viewBox="0 0 35 36" fill="none" xmlns="http://www.w3.org/2000/svg">
<path d="M23.6658 2H10.3342C9.3915 2 8.74613 2.89375 9.09682 3.71375L10.3329 7H23.6671L24.9032 3.71375C25.2539 2.89375 24.6085 2 23.6658 2Z" fill="#252525"/>
<path d="M23.6667 10H10.3333C10.3333 10 1 18.2105 1 27.7895C1 33.2632 5 36 7.66667 36C10.3333 36 17 36 17 36C17 36 23.6667 36 26.3333 36C29 36 33 33.2632 33 27.7895C33 18.2105 23.6667 10 23.6667 10ZM18.3333 29.0183V31.2105H15.6667V29.0252C13.7053 28.6475 12.472 27.4104 12.4 25.6027H14.7093C14.82 26.5524 15.7533 27.1614 17.0987 27.1614C18.34 27.1614 19.2187 26.5442 19.2187 25.6588C19.2187 24.9117 18.6493 24.482 17.2493 24.1727L15.7627 23.8484C13.6827 23.4023 12.6613 22.2898 12.6613 20.504C12.6613 18.7073 13.82 17.4264 15.6667 17.0049V14.7895H18.3333V17.0008C20.1333 17.4141 21.336 18.6731 21.3947 20.374H19.148C19.0373 19.4489 18.1987 18.8318 17.044 18.8318C15.8493 18.8318 15.0587 19.3997 15.0587 20.2933C15.0587 21.0158 15.604 21.4304 16.9413 21.7219L18.3173 22.0229C20.612 22.5183 21.6 23.5337 21.6 25.3509C21.6 27.3078 20.376 28.6201 18.3333 29.0183Z" fill="#252525"/>
<path d="M21 4H13C13 1.79067 14.7907 0 17 0C19.2093 0 21 1.79067 21 4Z" fill="#252525"/>
</svg>
