<svg width="187" height="71" viewBox="0 0 187 71" fill="none" xmlns="http://www.w3.org/2000/svg">
<path d="M85 37.4416V41H82.8428V39.3033H76V31H78.3196V37.4416H81.5253V31H83.8448V37.4416H85Z" fill="white"/>
<path d="M93 38.0334V40H86V31H92.8388V32.9679H88.4364V34.4842H92.3151V36.387H88.4364V38.0334H93Z" fill="white"/>
<path d="M102 31V40H99.6213V36.4896H96.3776V40H94V31H96.3776V34.3778H99.6213V31H102Z" fill="white"/>
<path d="M111.995 33.0192H109.251V40H106.756V33.0192H104V31H112L111.995 33.0192Z" fill="white"/>
<path d="M118.148 31.4068C118.706 31.6481 119.182 32.0504 119.516 32.5638C119.845 33.092 120.012 33.7068 119.998 34.3312C120.02 34.9501 119.854 35.5608 119.524 36.0814C119.193 36.6019 118.713 37.0073 118.149 37.2432C117.487 37.5269 116.772 37.6646 116.053 37.6472H114.509V40H112V31.0015H116.053C116.772 30.9839 117.486 31.1221 118.148 31.4068ZM117.072 35.3019C117.333 35.0742 117.464 34.7515 117.464 34.3312C117.474 34.149 117.444 33.9668 117.376 33.7978C117.308 33.6288 117.204 33.4773 117.072 33.3543C116.809 33.1225 116.421 33.0066 115.905 33.0066H114.512V35.6421H115.905C116.421 35.6421 116.809 35.5287 117.072 35.3019Z" fill="white"/>
<path d="M81.7974 52.2485H78.1595L77.4827 54H75L78.7981 45H81.1899L85 54H82.4731L81.7974 52.2485ZM81.0799 50.372L79.9737 47.4946L78.8675 50.372H81.0799Z" fill="white"/>
<path d="M93.5905 50.0917C93.8708 50.4772 94.0147 50.9488 93.9987 51.4291C94.0113 51.7956 93.9347 52.1596 93.7758 52.4882C93.6169 52.8169 93.3806 53.1 93.0883 53.3119C92.4806 53.7715 91.6204 54.0008 90.5076 54H86V45H90.2694C91.3235 45 92.1418 45.2035 92.7242 45.6105C93.0032 45.7972 93.2302 46.0547 93.3831 46.3579C93.536 46.6611 93.6096 46.9997 93.5967 47.3407C93.6043 47.7481 93.4979 48.1492 93.29 48.4967C93.073 48.842 92.7662 49.1184 92.4041 49.2948C92.8701 49.4295 93.2843 49.7078 93.5905 50.0917ZM88.4487 48.6005H90.0372C90.7402 48.6005 91.0917 48.3048 91.0917 47.7135C91.0917 47.1222 90.7402 46.8261 90.0372 46.8253H88.4487V48.6005ZM91.4876 51.2352C91.4876 50.6272 91.1276 50.3232 90.4075 50.3232H88.4524V52.1747H90.4075C91.1268 52.1747 91.4868 51.8615 91.4876 51.2352Z" fill="white"/>
<path d="M101.996 47.0192H99.2518V54H96.7569V47.0192H94V45H102L101.996 47.0192Z" fill="white"/>
<path d="M104.451 53.419C103.712 53.0443 103.092 52.4811 102.66 51.7903C102.228 51.0994 102 50.3074 102 49.5C102 48.6926 102.228 47.9006 102.66 47.2097C103.092 46.5189 103.712 45.9557 104.451 45.581C105.243 45.1989 106.115 45 107 45C107.885 45 108.757 45.1989 109.549 45.581C110.288 45.9557 110.908 46.5189 111.34 47.2097C111.772 47.9006 112 48.6926 112 49.5C112 50.3074 111.772 51.0994 111.34 51.7903C110.908 52.4811 110.288 53.0443 109.549 53.419C108.757 53.8011 107.885 54 107 54C106.115 54 105.243 53.8011 104.451 53.419ZM108.226 51.664C108.594 51.4569 108.895 51.155 109.096 50.7919C109.306 50.3916 109.416 49.949 109.416 49.5C109.416 49.0511 109.306 48.6084 109.096 48.2081C108.896 47.8451 108.594 47.5435 108.226 47.3372C107.851 47.1345 107.429 47.0281 106.999 47.0281C106.57 47.0281 106.148 47.1345 105.773 47.3372C105.405 47.5442 105.104 47.8456 104.902 48.2081C104.693 48.6087 104.584 49.0512 104.584 49.5C104.584 49.9488 104.693 50.3913 104.902 50.7919C105.104 51.1545 105.405 51.4562 105.773 51.664C106.148 51.8659 106.57 51.9719 106.999 51.9719C107.429 51.9719 107.851 51.8659 108.226 51.664Z" fill="white"/>
<path d="M121 45V54H118.611V47.0192H115.371V54H113V45H121Z" fill="white"/>
<path d="M124.45 53.4193C123.711 53.0443 123.092 52.4809 122.66 51.79C122.228 51.0992 122 50.3073 122 49.5C122 48.6927 122.228 47.9008 122.66 47.21C123.092 46.5191 123.711 45.9557 124.45 45.5807C125.242 45.1988 126.115 45 127 45C127.885 45 128.758 45.1988 129.55 45.5807C130.289 45.9557 130.908 46.5191 131.34 47.21C131.772 47.9008 132 48.6927 132 49.5C132 50.3073 131.772 51.0992 131.34 51.79C130.908 52.4809 130.289 53.0443 129.55 53.4193C128.758 53.8012 127.885 54 127 54C126.115 54 125.242 53.8012 124.45 53.4193ZM128.228 51.6641C128.596 51.457 128.897 51.1551 129.098 50.792C129.308 50.3916 129.418 49.949 129.418 49.5C129.418 49.051 129.308 48.6084 129.098 48.208C128.897 47.845 128.596 47.5434 128.228 47.3371C127.853 47.1344 127.43 47.0279 127.001 47.0279C126.571 47.0279 126.149 47.1344 125.774 47.3371C125.405 47.5434 125.104 47.845 124.903 48.208C124.693 48.6084 124.583 49.051 124.583 49.5C124.583 49.949 124.693 50.3916 124.903 50.792C125.104 51.1551 125.405 51.457 125.774 51.6641C126.149 51.8661 126.571 51.9721 127.001 51.9721C127.43 51.9721 127.852 51.8661 128.228 51.6641Z" fill="white"/>
<path d="M136.434 50.5546H135.358V54H133V45H135.357V48.4967H136.491L138.489 45H140.977L138.357 49.3461L141 54H138.334L136.434 50.5546Z" fill="white"/>
<path d="M148.113 45.4068C148.673 45.6511 149.15 46.0578 149.486 46.5766C149.821 47.0954 150 47.7034 150 48.325C150 48.9467 149.821 49.5546 149.486 50.0734C149.15 50.5922 148.673 50.9989 148.113 51.2432C147.454 51.5272 146.744 51.6649 146.03 51.6472H144.493V54H142V45.0016H146.03C146.745 44.9836 147.455 45.1218 148.113 45.4068ZM147.043 49.3019C147.303 49.0742 147.433 48.7515 147.433 48.3313C147.443 48.1491 147.413 47.9669 147.346 47.7979C147.279 47.6289 147.175 47.4774 147.043 47.3544C146.782 47.1225 146.395 47.0066 145.884 47.0066H144.5V49.6421H145.885C146.397 49.6421 146.783 49.5287 147.043 49.3019Z" fill="white"/>
<path d="M156.793 52.2485H153.16L152.483 54H150L153.798 45H156.19L160 54H157.465L156.793 52.2485ZM156.075 50.372L154.97 47.4946L153.864 50.372H156.075Z" fill="white"/>
<path d="M162.188 53.4244C161.524 53.0584 160.968 52.5042 160.583 51.8236C160.201 51.1162 160 50.3152 160 49.5C160 48.6848 160.201 47.8838 160.583 47.1763C160.968 46.4959 161.523 45.9418 162.187 45.5755C162.898 45.1847 163.689 44.9872 164.49 45.0006C165.183 44.9895 165.87 45.133 166.507 45.4216C167.091 45.6894 167.603 46.1053 168 46.6327L166.53 48.0411C166.001 47.3668 165.358 47.0292 164.601 47.0284C164.188 47.0202 163.78 47.1268 163.418 47.3375C163.076 47.5389 162.796 47.8414 162.613 48.2083C162.425 48.6097 162.327 49.0518 162.327 49.5C162.327 49.9482 162.425 50.3903 162.613 50.7917C162.796 51.1586 163.076 51.4614 163.418 51.6637C163.781 51.8733 164.188 51.9794 164.601 51.9716C165.358 51.9716 166.001 51.634 166.53 50.9589L168 52.3672C167.604 52.895 167.091 53.311 166.507 53.5784C165.87 53.867 165.183 54.0104 164.49 53.9993C163.69 54.0132 162.898 53.8156 162.188 53.4244Z" fill="white"/>
<path d="M172.433 50.5546H171.356V54H169V45H171.356V48.4967H172.492L174.489 45H176.977L174.357 49.3461L177 54H174.334L172.433 50.5546Z" fill="white"/>
<path d="M178 45H180.325V50.2844L183.777 45H186V54H183.675V48.7281L180.234 54H178V45Z" fill="white"/>
<path d="M31.981 16.1616C30.605 16.6408 29.2725 17.2561 28 18C30.3118 16.2974 32.8653 15.0192 35.5585 14.2165C36.6545 13.8943 37.7694 13.653 38.8954 13.4944C42.067 13.2056 45.4805 13.0247 49.1011 13H49.2041C49.605 13.131 49.9781 13.3467 50.302 13.6349C50.5798 13.883 50.816 14.1814 51 14.517C42.6728 14.6133 37.018 14.975 35.9392 15.1832C34.8964 15.3836 33.9039 15.6295 33.1783 15.8259C32.4527 16.0224 31.981 16.1616 31.981 16.1616Z" fill="white"/>
<path d="M72.9999 22.8435C73.0143 21.6611 71.5443 20.8654 70.8963 20.5118C69.3844 19.6841 67.84 19.6841 66.9064 19.7811C66.313 18.3101 65.4462 16.9611 64.3505 15.8035C63.5932 15.0047 62.7327 14.3074 61.791 13.7295C61.4502 13.6113 61.1274 13.5143 60.7866 13.4056C58.4419 13.2117 55.964 13.0698 53.3636 13C53.0482 13.1383 52.763 13.3354 52.5236 13.5806C52.3146 13.8001 52.1388 14.0482 52.0017 14.3172C54.5504 14.2995 57.3283 14.3066 60.2814 14.3432C61.2868 16.8444 61.7865 19.515 61.7526 22.205H21.7097C19.1096 22.7441 16.5578 23.4887 14.0791 24.4315C12.0523 25.2024 9.8528 26.0561 7.26687 27.7529C6.20088 28.4521 5.18234 29.2192 4.21775 30.0491C4.23774 30.6214 4.32226 31.1897 4.46974 31.7435C4.6198 32.3077 4.83647 32.8525 5.11532 33.367C4.73195 33.7906 4.39527 34.2532 4.11095 34.7468C3.80766 35.2698 3.5661 35.8252 3.39097 36.4022C3.10573 36.087 2.87542 35.7274 2.70939 35.338C2.5563 34.9788 2.45882 34.599 2.4202 34.2112C2.1802 34.9739 1.94021 35.7401 1.70022 36.5063C0.990072 37.1032 0.466924 37.8869 0.191855 38.7658C0.0184853 39.3543 -0.0381463 39.9701 0.0250598 40.5796C0.243454 40.8059 0.461849 41.0333 0.680243 41.2619C0.713842 41.8093 0.747441 42.3615 0.77744 42.909C0.921436 44.1351 1.06543 45.3578 1.20703 46.5839C1.03303 46.7081 0.859038 46.8358 0.680243 46.9599C0.809839 47.5405 0.935835 48.121 1.06543 48.7016C1.15636 49.0827 1.3368 49.4375 1.59222 49.7374C1.80294 49.9896 2.06234 50.1982 2.3554 50.3511C2.68008 49.6905 3.06442 49.0601 3.50377 48.4675C4.17468 47.5545 4.96785 46.7352 5.8617 46.0317C6.04021 45.8906 6.24552 45.786 6.46558 45.7241C6.68565 45.6622 6.91604 45.6441 7.14327 45.6711C16.5718 46.7904 25.9996 47.9098 35.4265 49.0291C36.997 49.4702 38.493 50.1367 39.8664 51.0073C43.8443 53.5258 45.6934 57.0801 46.4374 58.8005C48.7957 59.0665 51.177 59.0665 53.5352 58.8005C57.7201 58.3191 61.766 57.0225 65.4377 54.9861V42.3343C65.3228 40.1881 65.4996 38.0364 65.9633 35.9363C66.4265 33.8659 66.952 32.881 67.1116 32.5925C67.5628 31.7754 68.4244 30.5824 70.2196 29.154L71.8419 27.8794C71.5455 27.2445 71.2011 26.5622 70.7931 25.8539C70.3936 25.1646 69.9892 24.5367 69.5932 23.9704H72.5163C72.8036 23.6603 72.9743 23.2626 72.9999 22.8435ZM38.7288 45.0728C34.8205 46.0483 23.932 45.0385 23.3092 44.9806H23.2912C19.2761 44.5809 16.0362 44.1174 13.3963 43.6858C8.77882 42.9315 7.66645 42.5472 6.51328 41.7431C5.05892 40.7286 4.63173 39.8052 4.45894 39.2825C3.85896 37.4628 4.81173 35.7743 4.93893 35.5615C5.37655 34.8195 6.00267 34.2026 6.75568 33.7713C6.46505 32.9228 6.39897 32.0153 6.56368 31.1346C6.94407 29.1529 8.39363 28.0603 8.76322 27.7907C8.46323 28.0757 6.81808 29.6944 7.04247 31.8878C7.09557 32.396 7.24109 32.8906 7.47206 33.348C15.671 33.676 23.9872 34.13 32.4206 34.7102C34.1629 34.8308 35.8993 34.9565 37.6296 35.0874L49.0053 29.5301C45.5174 31.5252 42.0283 33.5191 38.538 35.5119C39.2473 35.8257 39.9072 36.2383 40.4976 36.7368C41.6975 37.749 42.2507 38.819 42.6959 39.7035C43.2395 40.7807 43.5455 41.4109 43.3175 42.1061C43.1543 42.6027 42.7871 42.9173 42.2663 43.2885C41.5007 43.8194 40.2564 44.6909 38.7288 45.0728ZM54.5864 56.7881C53.0579 57.0327 51.5099 57.1392 49.9617 57.1062C48.4882 53.2225 45.8518 49.8717 42.4019 47.4979C44.965 47.22 47.125 47.103 48.7233 47.051C56.0971 46.8145 57.6463 47.7462 58.4263 48.3693C59.9418 49.5801 60.7674 51.401 60.8646 51.6198C61.2842 52.5637 61.5385 53.5707 61.617 54.5983C59.3931 55.6588 57.025 56.396 54.5864 56.7869V56.7881ZM63.7277 33.7926C63.7095 33.8594 63.6779 33.9219 63.6348 33.9765C63.5918 34.0312 63.5381 34.0768 63.4769 34.1107C56.8939 38.3768 53.3672 39.4091 53.3672 39.4091C51.6525 39.9116 49.4073 40.4945 46.735 40.9994L43.1507 35.915L42.0395 35.6325L43.5803 35.4551L61.0026 31.4988L62.9802 29.5833L61.7562 31.4952C62.6754 32.3986 63.3438 33.1021 63.5837 33.4036C63.6335 33.4551 63.6719 33.5161 63.6967 33.5828C63.7214 33.6495 63.732 33.7205 63.7277 33.7914V33.7926Z" fill="white"/>
<path d="M43 58.9992C34.0716 59.0346 25.1784 57.902 16.5558 55.6314C11.9294 54.4092 7.39902 52.8614 3 51C7.55376 52.3903 12.4227 53.7008 17.6068 54.8822C25.9736 56.7804 34.4551 58.1555 43 58.9992Z" fill="white"/>
<path d="M39 52.9366C31.4946 53.2177 23.9831 52.5635 16.646 50.9896C13.0368 50.213 9.48112 49.2145 6 48C10.1251 49.0125 14.552 49.9458 19.271 50.7348C25.8005 51.8276 32.387 52.5626 39 52.9366Z" fill="white"/>
<path d="M66 53L66.2179 38.2894C66.4309 36.3599 67.07 33.6405 69.0176 31.1289C69.3225 30.7346 69.6505 30.3577 70 30C68.9549 31.5859 68.2154 33.3428 67.8174 35.185C67.6117 36.1487 67.502 37.1293 67.49 38.1134C67.369 41.8401 67.2473 45.5675 67.1248 49.2958C66.7498 50.5285 66.3749 51.7633 66 53Z" fill="white"/>
<path d="M29 12.2396C27.0963 12.487 26.0397 13.1926 25.421 13.8581C24.0134 15.373 23.6053 18.0234 23.5292 17.9998C23.5184 17.9998 23.5292 17.9492 23.5292 17.9492C23.5827 17.5781 23.3138 15.3718 21.5862 13.8581C20.1774 12.6236 18.5354 12.494 18 12.474C19.468 12.2605 20.8209 11.5643 21.8408 10.4974C22.7494 9.52847 23.3383 8.30853 23.5292 7C23.663 8.33106 24.2504 9.57738 25.1949 10.5339C26.2147 11.5372 27.5657 12.1428 29 12.2396Z" fill="white"/>
<path d="M20 16.4293C19.6738 16.4596 19.2906 16.5568 19.0162 16.8412C18.5823 17.2929 18.5063 18.1168 18.5084 17.9861C18.5087 17.7644 18.4607 17.5453 18.3678 17.3436C18.2749 17.1419 18.1393 16.9623 17.9701 16.8172C17.6952 16.5997 17.3517 16.485 17 16.4931C17.3808 16.4396 17.7337 16.2651 18.0057 15.9958C18.2778 15.7266 18.4542 15.3771 18.5084 15C18.5446 15.3751 18.7147 15.7251 18.9881 15.9871C19.2615 16.2491 19.6203 16.4059 20 16.4293Z" fill="white"/>
<path d="M54 11.0345C53.6507 11.0567 53.3082 11.1285 52.987 11.2468C52.7515 11.3349 52.5385 11.4611 52.3601 11.6182C52.204 11.7589 52.0727 11.918 51.9702 12.0905C51.9376 12.1435 51.91 12.1966 51.8862 12.2369C51.8862 12.2369 51.8435 12.3155 51.8022 12.4036C51.7155 12.5988 51.6414 12.7979 51.5802 13C51.5339 12.8652 51.485 12.7495 51.4411 12.6551C51.4198 12.6052 51.3746 12.515 51.3157 12.4014C51.2653 12.2954 51.2054 12.1929 51.1364 12.0947C50.9985 11.9008 50.822 11.7285 50.6148 11.5853C50.3729 11.4177 50.0943 11.2922 49.7949 11.216C49.5376 11.1489 49.2692 11.1174 49 11.1226C49.6331 11.0462 50.2197 10.798 50.6719 10.4152C51.1241 10.0325 51.4173 9.53587 51.5075 9C51.5661 9.51663 51.8316 10.0008 52.2598 10.3722C52.7263 10.7637 53.3445 10.9989 54 11.0345Z" fill="white"/>
<path d="M37 22.0372L28.4286 32L20 31.6401L34.2607 22L37 22.0372Z" fill="#252525"/>
<path d="M33 22L17.8342 31L14 30.9073L32.0502 22.0158L33 22Z" fill="#252525"/>
<path d="M59 54C58.7266 53.0345 58.0843 51.3648 56.4973 49.9485C56.1804 49.6698 55.8437 49.4121 55.4897 49.177C52.5576 47.2747 46.7191 48.2203 46 48.3426C49.5255 48.2501 51.9991 48.9444 53.3232 49.4183C54.6031 49.8768 55.3233 50.2913 55.7096 50.5381C57.0818 51.4274 58.2099 52.6143 59 54Z" fill="white"/>
<path d="M34.5377 15.5753C36.2575 15.2263 38.108 15.0867 40 15L31.5904 20.9797L23 21C25.5931 19.1456 28.9692 16.7114 34.5377 15.5753Z" fill="white"/>
<path d="M61 21.9649L47 22C47.8555 19.6866 48.7109 17.3739 49.5664 15.0622C52.6555 15.0083 56.1243 14.9833 59.8757 15.0121C60.1085 15.8884 60.3256 16.8461 60.51 17.8701C60.7515 19.2239 60.9152 20.5912 61 21.9649Z" fill="white"/>
<path d="M49 15C48.1718 17.3191 47.3429 19.639 46.5132 21.9598L31 22L39.0915 15.3278C39.7168 15.2939 40.3467 15.2675 40.9778 15.2411C43.1814 15.1469 45.8927 15.0578 49 15Z" fill="#252525"/>
</svg>
