<svg width="73" height="46" viewBox="0 0 73 46" fill="none" xmlns="http://www.w3.org/2000/svg">
<path d="M72.9999 9.84354C73.0143 8.66113 71.5443 7.86537 70.8963 7.51183C69.3844 6.68415 67.84 6.68415 66.9064 6.78111C66.313 5.31009 65.4462 3.96112 64.3505 2.80349C63.5932 2.00471 62.7327 1.30742 61.791 0.729545C61.4502 0.611304 61.1274 0.514347 60.7866 0.405566C58.4419 0.211651 55.964 0.069762 53.3636 0C53.0482 0.138296 52.763 0.335443 52.5236 0.580562C52.3146 0.800126 52.1388 1.04822 52.0017 1.3172C54.5504 1.29947 57.3283 1.30656 60.2814 1.34321C61.2868 3.8444 61.7865 6.51503 61.7526 9.20504H21.7097C19.1096 9.74409 16.5578 10.4887 14.0791 11.4315C12.0523 12.2024 9.8528 13.0561 7.26687 14.7529C6.20088 15.4521 5.18234 16.2192 4.21775 17.0491C4.23774 17.6214 4.32226 18.1897 4.46974 18.7435C4.6198 19.3077 4.83647 19.8525 5.11532 20.367C4.73195 20.7906 4.39527 21.2532 4.11095 21.7468C3.80766 22.2698 3.5661 22.8252 3.39097 23.4022C3.10573 23.087 2.87542 22.7274 2.70939 22.338C2.5563 21.9788 2.45882 21.599 2.4202 21.2112C2.1802 21.9739 1.94021 22.7401 1.70022 23.5063C0.990072 24.1032 0.466924 24.8869 0.191855 25.7658C0.0184853 26.3543 -0.0381463 26.9701 0.0250598 27.5796C0.243454 27.8059 0.461849 28.0333 0.680243 28.2619C0.713842 28.8093 0.747441 29.3615 0.77744 29.909C0.921436 31.1351 1.06543 32.3578 1.20703 33.5839C1.03303 33.7081 0.859038 33.8358 0.680243 33.9599C0.809839 34.5405 0.935835 35.121 1.06543 35.7016C1.15636 36.0827 1.3368 36.4375 1.59222 36.7374C1.80294 36.9896 2.06234 37.1982 2.3554 37.3511C2.68008 36.6905 3.06442 36.0601 3.50377 35.4675C4.17468 34.5545 4.96785 33.7352 5.8617 33.0317C6.04021 32.8906 6.24552 32.786 6.46558 32.7241C6.68565 32.6622 6.91604 32.6441 7.14327 32.6711C16.5718 33.7904 25.9996 34.9098 35.4265 36.0291C36.997 36.4702 38.493 37.1367 39.8664 38.0073C43.8443 40.5258 45.6934 44.0801 46.4374 45.8005C48.7957 46.0665 51.177 46.0665 53.5352 45.8005C57.7201 45.3191 61.766 44.0225 65.4377 41.9861V29.3343C65.3228 27.1881 65.4996 25.0364 65.9633 22.9363C66.4265 20.8659 66.952 19.881 67.1116 19.5925C67.5628 18.7754 68.4244 17.5824 70.2196 16.154L71.8419 14.8794C71.5455 14.2445 71.2011 13.5622 70.7931 12.8539C70.3936 12.1646 69.9892 11.5367 69.5932 10.9704H72.5163C72.8036 10.6603 72.9743 10.2626 72.9999 9.84354ZM38.7288 32.0728C34.8205 33.0483 23.932 32.0385 23.3092 31.9806H23.2912C19.2761 31.5809 16.0362 31.1174 13.3963 30.6858C8.77882 29.9315 7.66645 29.5472 6.51328 28.7431C5.05892 27.7286 4.63173 26.8052 4.45894 26.2825C3.85896 24.4628 4.81173 22.7743 4.93893 22.5615C5.37655 21.8195 6.00267 21.2026 6.75568 20.7713C6.46505 19.9228 6.39897 19.0153 6.56368 18.1346C6.94407 16.1529 8.39363 15.0603 8.76322 14.7907C8.46323 15.0757 6.81808 16.6944 7.04247 18.8878C7.09557 19.396 7.24109 19.8906 7.47206 20.348C15.671 20.676 23.9872 21.13 32.4206 21.7102C34.1629 21.8308 35.8993 21.9565 37.6296 22.0874L49.0053 16.5301C45.5174 18.5252 42.0283 20.5191 38.538 22.5119C39.2473 22.8257 39.9072 23.2383 40.4976 23.7368C41.6975 24.749 42.2507 25.819 42.6959 26.7035C43.2395 27.7807 43.5455 28.4109 43.3175 29.1061C43.1543 29.6027 42.7871 29.9173 42.2663 30.2885C41.5007 30.8194 40.2564 31.6909 38.7288 32.0728ZM54.5864 43.7881C53.0579 44.0327 51.5099 44.1392 49.9617 44.1062C48.4882 40.2225 45.8518 36.8717 42.4019 34.4979C44.965 34.22 47.125 34.103 48.7233 34.051C56.0971 33.8145 57.6463 34.7462 58.4263 35.3693C59.9418 36.5801 60.7674 38.401 60.8646 38.6198C61.2842 39.5637 61.5385 40.5707 61.617 41.5983C59.3931 42.6588 57.025 43.396 54.5864 43.7869V43.7881ZM63.7277 20.7926C63.7095 20.8594 63.6779 20.9219 63.6348 20.9765C63.5918 21.0312 63.5381 21.0768 63.4769 21.1107C56.8939 25.3768 53.3672 26.4091 53.3672 26.4091C51.6525 26.9116 49.4073 27.4945 46.735 27.9994L43.1507 22.915L42.0395 22.6325L43.5803 22.4551L61.0026 18.4988L62.9802 16.5833L61.7562 18.4952C62.6754 19.3986 63.3438 20.1021 63.5837 20.4036C63.6335 20.4551 63.6719 20.5161 63.6967 20.5828C63.7214 20.6495 63.732 20.7205 63.7277 20.7914V20.7926Z" fill="white"/>
</svg>
