<svg width="36" height="35" viewBox="0 0 36 35" fill="none" xmlns="http://www.w3.org/2000/svg">
<path d="M30.75 0H5.25C3.86185 0.0136451 2.53443 0.569845 1.55281 1.54915C0.571192 2.52845 0.0136773 3.85275 0 5.23762L0 24.6917C0.0528425 26.1237 0.562236 27.5016 1.4541 28.625C2.34596 29.7484 3.57378 30.5586 4.959 30.9379L21.6975 34.8601C22.3346 35.0246 23.0005 35.0443 23.6462 34.9177C24.2919 34.791 24.9008 34.5213 25.428 34.1283C25.9378 33.712 26.3447 33.1842 26.6173 32.5858C26.8899 31.9874 27.0209 31.3345 27 30.6775V16.1738C26.9976 14.782 26.5391 13.4292 25.6945 12.3215C24.8498 11.2138 23.6653 10.412 22.3215 10.0383L6.084 5.57133C5.94158 5.53203 5.80832 5.46513 5.69182 5.37444C5.57531 5.28376 5.47786 5.17107 5.40501 5.04281C5.33216 4.91455 5.28535 4.77323 5.26725 4.62692C5.24914 4.48061 5.2601 4.33218 5.2995 4.1901C5.3389 4.04802 5.40596 3.91507 5.49686 3.79884C5.58776 3.68261 5.70071 3.58539 5.82927 3.51271C5.95784 3.44003 6.09949 3.39333 6.24614 3.37527C6.3928 3.35721 6.54158 3.36814 6.684 3.40745L11.985 4.8665H12.003H30.75C31.0484 4.8665 31.3345 4.98475 31.5455 5.19523C31.7565 5.40571 31.875 5.69118 31.875 5.98885C31.875 6.28651 31.7565 6.57199 31.5455 6.78247C31.3345 6.99295 31.0484 7.1112 30.75 7.1112H22.8975C22.8067 7.111 22.7189 7.14369 22.6504 7.2032C22.5819 7.2627 22.5374 7.34497 22.5252 7.43473C22.5129 7.52449 22.5337 7.61565 22.5837 7.69128C22.6337 7.76691 22.7095 7.82187 22.797 7.84596L22.926 7.88187C24.6348 8.35534 26.1545 9.34553 27.276 10.7162C27.3116 10.7587 27.3561 10.7929 27.4064 10.8164C27.4567 10.8399 27.5115 10.8522 27.567 10.8524H30.75C31.0484 10.8524 31.3345 10.9706 31.5455 11.1811C31.7565 11.3916 31.875 11.677 31.875 11.9747C31.875 12.2724 31.7565 12.5578 31.5455 12.7683C31.3345 12.9788 31.0484 13.097 30.75 13.097H29.193C29.1337 13.0967 29.0752 13.1104 29.0223 13.1371C28.9694 13.1637 28.9236 13.2026 28.8887 13.2504C28.8538 13.2982 28.8309 13.3536 28.8217 13.412C28.8125 13.4705 28.8174 13.5302 28.836 13.5864C29.1118 14.4225 29.254 15.2966 29.2575 16.1768V26.5652C29.2575 26.6644 29.297 26.7596 29.3673 26.8298C29.4377 26.8999 29.533 26.9393 29.6325 26.9393H30.75C32.1424 26.9393 33.4777 26.3875 34.4623 25.4053C35.4469 24.423 36 23.0908 36 21.7017V5.24062C36.0004 4.55255 35.8649 3.87115 35.6012 3.23535C35.3376 2.59954 34.9509 2.0218 34.4634 1.53512C33.9758 1.04845 33.3969 0.662379 32.7598 0.398976C32.1226 0.135574 31.4397 -1.12337e-07 30.75 0ZM23.25 22.447C23.25 23.0389 23.0741 23.6175 22.7444 24.1097C22.4148 24.6019 21.9462 24.9855 21.3981 25.2121C20.8499 25.4386 20.2467 25.4979 19.6647 25.3824C19.0828 25.2669 18.5482 24.9818 18.1287 24.5633C17.7091 24.1447 17.4234 23.6114 17.3076 23.0308C17.1919 22.4503 17.2513 21.8485 17.4784 21.3016C17.7054 20.7547 18.0899 20.2873 18.5833 19.9584C19.0766 19.6296 19.6567 19.454 20.25 19.454C21.0456 19.454 21.8087 19.7694 22.3713 20.3306C22.9339 20.8919 23.25 21.6532 23.25 22.447Z" fill="#252525"/>
</svg>
