<svg width="30" height="30" viewBox="0 0 30 30" fill="none" xmlns="http://www.w3.org/2000/svg">
<path d="M15 17C17.7614 17 20 14.7614 20 12C20 9.23858 17.7614 7 15 7C12.2386 7 10 9.23858 10 12C10 14.7614 12.2386 17 15 17Z" fill="white"/>
<path d="M25.605 11.2102C25.7601 11.0051 25.8732 10.7704 25.9377 10.52C26.0022 10.2695 26.0168 10.0084 25.9806 9.75205C25.9444 9.49573 25.8581 9.24942 25.7269 9.02772C25.5957 8.80602 25.4222 8.61342 25.2167 8.46134L24.4126 7.86611C24.1474 7.66998 23.9366 7.40719 23.8005 7.10331C23.6644 6.79942 23.6078 6.46479 23.636 6.13195L23.7211 5.12192C23.7443 4.86312 23.7162 4.6022 23.6384 4.35471C23.5607 4.10722 23.4349 3.87824 23.2685 3.68141C23.1021 3.48459 22.8986 3.32395 22.67 3.20908C22.4415 3.09422 22.1926 3.02747 21.9382 3.01282L20.9457 2.95658C20.6188 2.93759 20.3022 2.83265 20.0269 2.65197C19.7515 2.47129 19.5266 2.22101 19.3742 1.92546L18.9147 1.02792C18.7955 0.799009 18.6325 0.596842 18.4353 0.433404C18.2381 0.269966 18.0107 0.148585 17.7667 0.0764618C17.5226 0.004338 17.2668 -0.0170604 17.0145 0.0135356C16.7622 0.0441317 16.5185 0.126099 16.2978 0.254576L15.4339 0.753732C15.1487 0.91845 14.8266 1.00503 14.4989 1.00503C14.1711 1.00503 13.849 0.91845 13.5638 0.753732L12.6999 0.254576C12.4788 0.126828 12.2347 0.0456845 11.9823 0.0159597C11.7298 -0.0137651 11.4741 0.00853441 11.2302 0.0815353C10.9864 0.154536 10.7594 0.276751 10.5627 0.44093C10.366 0.605108 10.2037 0.807905 10.0853 1.03729L9.62584 1.93483C9.47336 2.23038 9.2485 2.48066 8.97313 2.66134C8.69776 2.84202 8.38124 2.94696 8.05434 2.96595L7.06182 3.02219C6.80743 3.03684 6.55854 3.10359 6.32999 3.21846C6.10144 3.33333 5.89791 3.49396 5.73153 3.69079C5.56515 3.88761 5.43933 4.11659 5.36157 4.36408C5.28382 4.61157 5.25572 4.8725 5.27895 5.1313L5.36396 6.14133C5.39224 6.47416 5.33558 6.8088 5.1995 7.11268C5.06342 7.41656 4.85255 7.67935 4.5874 7.87548L3.78327 8.47072C3.57777 8.6228 3.40428 8.81539 3.27307 9.0371C3.14186 9.2588 3.0556 9.5051 3.01939 9.76142C2.98319 10.0177 2.99778 10.2789 3.06229 10.5293C3.12681 10.7798 3.23994 11.0145 3.39499 11.2196L4.00153 12.021C4.20174 12.2853 4.3315 12.5979 4.3782 12.9285C4.4249 13.2591 4.38695 13.5963 4.26805 13.9075L3.90734 14.8449C3.81513 15.0861 3.77131 15.3438 3.77847 15.6026C3.78563 15.8614 3.84362 16.1162 3.94902 16.3517C4.05442 16.5873 4.20508 16.7989 4.39208 16.974C4.57908 17.1491 4.79862 17.2841 5.03771 17.3711L5.9728 17.7109C6.28153 17.8229 6.55658 18.0145 6.77117 18.267C6.98577 18.5196 7.1326 18.8245 7.19737 19.1522L7.37657 20.0427L4.98946 27.9565L8.77576 26.7473L11.133 30L13.2858 22.822C13.608 23.0948 14.0096 23.2512 14.4281 23.2669C14.8466 23.2826 15.2584 23.1567 15.5994 22.9087L17.8647 30L20.2219 26.7473L24.0082 27.9565L21.5637 20.3075C21.5798 20.2536 21.5936 20.202 21.605 20.1458L21.8003 19.1522C21.8651 18.8245 22.0119 18.5196 22.2265 18.267C22.4411 18.0145 22.7162 17.8229 23.0249 17.7109L23.96 17.3711C24.1991 17.2841 24.4186 17.1491 24.6056 16.974C24.7926 16.7989 24.9433 16.5873 25.0487 16.3517C25.1541 16.1162 25.2121 15.8614 25.2192 15.6026C25.2264 15.3438 25.1826 15.0861 25.0904 14.8449L24.7297 13.9075C24.6108 13.5963 24.5728 13.2591 24.6195 12.9285C24.6662 12.5979 24.796 12.2853 24.9962 12.021L25.605 11.2102ZM7.93946 11.6367C7.93946 10.3135 8.32417 9.0199 9.04492 7.91965C9.76568 6.81939 10.7901 5.96185 11.9887 5.45545C13.1873 4.94906 14.5061 4.81657 15.7785 5.07472C17.0509 5.33288 18.2197 5.97009 19.137 6.90578C20.0544 7.84147 20.6791 9.03362 20.9322 10.3315C21.1853 11.6293 21.0554 12.9745 20.5589 14.1971C20.0625 15.4196 19.2217 16.4645 18.1431 17.1997C17.0644 17.9349 15.7962 18.3273 14.4989 18.3273C12.7598 18.3254 11.0924 17.6199 9.86268 16.3656C8.63295 15.1113 7.94129 13.4106 7.93946 11.6367Z" fill="white"/>
</svg>
