<svg width="30" height="30" viewBox="0 0 30 30" fill="none" xmlns="http://www.w3.org/2000/svg">
<path d="M2.89486 7.35546L0.0693737 2.68003L1.95303 0.809852L6.66219 3.61511V5.48529L11.5059 10.2943V10.6951L9.75677 12.2981L4.77852 7.35546H2.89486ZM23.0769 18.7101H22.0006C21.0587 18.7101 20.2514 18.5765 19.4442 18.4429L16.6187 21.6489L22.9424 28.7289C24.4224 30.3319 26.9788 30.4655 28.4588 28.8625C30.0734 27.2594 29.9388 24.8549 28.3243 23.3855L23.0769 18.7101ZM27.6515 13.6339C29.8043 11.4966 30.477 8.29055 29.6698 5.48529C29.5352 4.95095 28.8625 4.81737 28.5934 5.21812L23.8842 9.89355L20.1169 6.1532L24.826 1.47777C25.2297 1.07702 25.0951 0.542684 24.557 0.4091C21.7315 -0.525986 18.5023 0.141933 16.3496 2.41286C13.9277 4.81737 13.3895 8.55771 14.735 11.4966L1.2803 23.3855C-0.334268 24.8549 -0.468816 27.393 1.14575 28.8625C2.76032 30.4655 5.18217 30.3319 6.66219 28.7289L18.6369 15.3705C21.5969 16.7063 25.2297 16.172 27.6515 13.6339Z" fill="white"/>
</svg>
